<svg id="Layer_1" data-name="Layer 1" xmlns="http://www.w3.org/2000/svg" viewBox="0 0 1702.63 1000.03"><defs><style>.cls-1{fill:#1f2d33;}.cls-2{fill:#223238;}.cls-2,.cls-3,.cls-4,.cls-5{opacity:0.8;}.cls-3,.cls-6{fill:#273942;}.cls-4{fill:#2b3f47;}.cls-5{fill:#2e464d;}.cls-6{opacity:0.6;}.cls-7{font-size:392.95px;}.cls-14,.cls-7{fill:#a8bacc;}.cls-16,.cls-7{font-family:Montserrat-SemiBold, Montserrat;}.cls-17,.cls-18,.cls-7{font-weight:700;}.cls-8{opacity:0;}.cls-16,.cls-9{fill:#d7d7ec;}.cls-10{fill:#8bb4ad;}.cls-11{fill:#506c7a;}.cls-12{fill:#2b3942;}.cls-13{fill:#eeeae7;}.cls-15{fill:#73938d;}.cls-16{font-size:36px;}.cls-18{font-size:48px;}.cls-19,.cls-20,.cls-21,.cls-22,.cls-23{font-size:24px;font-family:Montserrat-Light, Montserrat;}.cls-19{letter-spacing:-0.02em;}.cls-20{letter-spacing:0em;}.cls-22{letter-spacing:0em;}.cls-23{letter-spacing:-0.01em;}.cls-24{font-size:60px;fill:#bcc3cd;font-family:Omnes-Regular, Omnes;}.cls-25{fill:#8cb4ad;font-family:OmnesExtraLight, Omnes;}</style></defs><title>404 Error Page</title><polygon class="cls-1" points="1212.99 0.03 1158.06 0.03 1193.5 0.1 1212.99 0.03"/><rect class="cls-1" x="1699.93" y="0.03" width="1.12" height="0.66"/><rect class="cls-1" x="1698.88" y="0.66" width="1.12" height="0.38" transform="translate(1.06 6.52) rotate(-0.22)"/><polygon class="cls-1" points="1699.93 0.03 1212.99 0.03 1193.5 0.1 1439.48 0.57 1699.93 0.69 1699.93 0.03"/><polygon class="cls-1" points="1699.93 0.69 1439.48 0.57 1699.93 1.07 1699.93 0.69"/><polygon class="cls-1" points="1.05 529.95 4.31 0.03 1.05 0.03 1.05 529.95"/><polygon class="cls-1" points="1439.48 0.57 1193.5 0.1 1101.64 0.42 1439.48 0.57"/><polygon class="cls-1" points="1193.5 0.1 1158.06 0.03 235.24 0.03 1101.64 0.42 1193.5 0.1"/><polygon class="cls-1" points="1439.48 0.57 1101.64 0.42 4.34 4.26 1101.64 0.42 235.24 0.03 4.31 0.03 1.05 529.95 1.05 1000.03 1701.05 1000.03 1701.05 999.7 3.17 999.7 1701.05 999.7 1701.05 289.97 1699.93 1.07 1439.48 0.57"/><polygon class="cls-1" points="1701.05 1.08 1699.93 1.07 1701.05 289.97 1701.05 1.08"/><path class="cls-2" d="M1100.58.39,164.49,0c-1,1.23-2,2.46-3,3.7Z" transform="translate(1.05 0.03)"/><polygon class="cls-2" points="1193.5 0.1 1101.63 0.42 1439.48 0.57 1193.5 0.1"/><path class="cls-2" d="M1536.12.73,1438.44.54,1100.58.39l-939,3.28C85.07,100.43,29.43,213.74,1.19,337.19L-1,700.52A837,837,0,0,0,128.68,999.67H1571.33a837,837,0,0,0,130.25-301.6l-1.37-354.56C1672.16,216.36,1615.11,99.77,1536.12.73Z" transform="translate(1.05 0.03)"/><path class="cls-2" d="M1536,.59l-97.57,0,97.68.19A.76.76,0,0,0,1536,.59Z" transform="translate(1.05 0.03)"/><path class="cls-3" d="M1100.59.39,304.9,0l-3.15,3.15Z" transform="translate(1.05 0.03)"/><path class="cls-3" d="M1347.63.37,1192.45.07l-91.86.32L1347.76.5A1.59,1.59,0,0,0,1347.63.37Z" transform="translate(1.05 0.03)"/><path class="cls-3" d="M1100.59.39,301.75,3.18C169.08,136.77,87.09,320.76,87.09,523.91A736,736,0,0,0,260.6,999.67h1131a736,736,0,0,0,173.52-475.76C1565.09,319.4,1482,134.3,1347.76.5Z" transform="translate(1.05 0.03)"/><path class="cls-4" d="M1105.92.37l-5.34,0H1106Z" transform="translate(1.05 0.03)"/><path class="cls-4" d="M1106,.39h-5.38L590.63,2.17C411.23,95.83,288.75,283.6,288.75,500c0,217.82,124.1,406.64,305.44,499.67h511.64c181.33-93,305.42-281.85,305.42-499.67S1287.22,93.44,1106,.39Z" transform="translate(1.05 0.03)"/><path class="cls-4" d="M1100.58.39,594.52.16l-3.89,2Z" transform="translate(1.05 0.03)"/><circle class="cls-5" cx="851.05" cy="500.03" r="335.67"/><polygon class="cls-6" points="1701.05 1.08 1699.93 1.07 1701.05 289.97 1701.05 1.08"/><polygon class="cls-6" points="1439.48 0.57 1193.5 0.1 1101.64 0.42 1439.48 0.57"/><polygon class="cls-6" points="1193.5 0.1 1158.06 0.03 661.83 0.03 235.24 0.03 1101.64 0.42 1193.5 0.1"/><path class="cls-6" d="M1513.74.69,117.3,4.07,1513.74.69,1438.43.54,1100.59.39,3.29,4.23,1100.59.39,234.19,0h-116c.28.67.56,1.34.86,2-.3-.66-.58-1.33-.86-2H3.26L0,529.92V1000H1700v-.33h0V289.93L1698.88,1Z" transform="translate(1.05 0.03)"/><polygon class="cls-6" points="1.05 529.95 4.31 0.03 1.05 0.03 1.05 529.95"/><polygon class="cls-6" points="1212.99 0.03 1158.06 0.03 1193.5 0.1 1212.99 0.03"/><rect class="cls-6" x="1698.88" y="0.66" width="1.12" height="0.38" transform="translate(1.06 6.52) rotate(-0.22)"/><rect class="cls-6" x="1699.93" y="0.03" width="1.12" height="0.66"/><polygon class="cls-6" points="1553.45 0.62 1514.79 0.72 1699.93 1.07 1699.93 0.69 1553.45 0.62"/><text class="cls-7" transform="translate(346.39 483.13)">4 <tspan class="cls-8" x="375.26" y="0">0 </tspan><tspan x="748.16" y="0">4</tspan></text><rect class="cls-9" x="845.35" y="177.83" width="11.02" height="38.05"/><circle class="cls-9" cx="850.96" cy="164.35" r="16.77"/><circle class="cls-10" cx="724.35" cy="349.27" r="50.84"/><circle class="cls-10" cx="979.81" cy="349.71" r="50.84"/><ellipse class="cls-9" cx="853.58" cy="349.01" rx="148.22" ry="139.13"/><ellipse class="cls-11" cx="855.32" cy="360.31" rx="105.26" ry="82.65"/><ellipse class="cls-12" cx="798.75" cy="353.98" rx="14.25" ry="16.84"/><ellipse class="cls-12" cx="902.81" cy="353.98" rx="14.25" ry="16.84"/><circle class="cls-13" cx="803.46" cy="349.27" r="4.71"/><circle class="cls-13" cx="898.03" cy="349.27" r="4.71"/><path class="cls-14" d="M840.35,212c.12.62-10,2.76-20.34,6.19-4.09,1.36-28,9.49-49.5,26.61-7,5.6-29.87,24.23-42.27,55.75C708.41,351,725.16,409.26,754.69,441.2c17,18.38,41,31.12,42.94,32.12a165.37,165.37,0,0,0,31.87,12.62,84.7,84.7,0,0,1-10.17,0c-26.53-1.63-45.55-15.64-58.54-25.47-8.29-6.27-24.85-18.8-37.52-39.45-22.53-36.73-27.73-90.94-3.39-136.35,21.74-40.56,59.66-60.29,85.64-67.2C819.82,213.66,840.17,211.17,840.35,212Z" transform="translate(1.05 0.03)"/><path class="cls-14" d="M849.55,180.55c.16-.37-3.14-1.38-6-4.59a17.46,17.46,0,0,1-4.06-8.4,18,18,0,0,1,2.23-12.2,18.6,18.6,0,0,1,8-7.35,14.8,14.8,0,0,0-6.3.92,16.23,16.23,0,0,0-10.23,14.56c-.17,8.67,7.1,13.53,8.27,14.3C845.15,180.29,849.37,181,849.55,180.55Z" transform="translate(1.05 0.03)"/><circle class="cls-10" cx="850.73" cy="164.35" r="16.77"/><path class="cls-15" d="M849.32,180.55c.16-.37-3.14-1.38-6-4.59a17.41,17.41,0,0,1-4.07-8.4,18.1,18.1,0,0,1,2.23-12.2,18.6,18.6,0,0,1,8-7.35,14.8,14.8,0,0,0-6.3.92,16.25,16.25,0,0,0-10.23,14.56c-.17,8.67,7.1,13.53,8.27,14.3C844.92,180.29,849.14,181,849.32,180.55Z" transform="translate(1.05 0.03)"/><text class="cls-16" transform="translate(682.46 577.87)"><tspan class="cls-17">Oops ...</tspan><tspan class="cls-18" x="133.05" y="0"> </tspan><tspan class="cls-19" x="146.3" y="0">P</tspan><tspan class="cls-20" x="163.1" y="0">a</tspan><tspan class="cls-21" x="177.12" y="0">ge </tspan><tspan class="cls-22" x="213.98" y="0">n</tspan><tspan class="cls-21" x="230.15" y="0">ot </tspan><tspan class="cls-23" x="260.75" y="0">f</tspan><tspan class="cls-21" x="268.41" y="0">ou</tspan><tspan class="cls-20" x="299.34" y="0">n</tspan><tspan class="cls-21" x="315.52" y="0">d. </tspan></text><text class="cls-24" transform="translate(715.67 722.54)">Simon<tspan class="cls-25" x="161.04" y="0">Says</tspan></text></svg>